PathFileType	4	(X/Y/Z)	C:\Users\Hakeem\Desktop\Python Projects\BasketballMotionAnalysis\Sports2D_Results\free_throw_Sports2D\free_throw_Sports2D_m_person00.trc
DataRate	CameraRate	NumFrames	NumMarkers	Units	OrigDataRate	OrigDataStartFrame	OrigNumFrames
30.0	30.0	10	22	m	30.0	38	90
Frame#	Time	Hip			RHip			RKnee			RAnkle			RBigToe			RSmallToe			RHeel			LHip			LKnee			LAnkle			LBigToe			LSmallToe			LHeel			Neck			Head			Nose			RShoulder			RElbow			RWrist			LShoulder			LElbow			LWrist			
		X1	Y1	Z1	X2	Y2	Z2	X3	Y3	Z3	X4	Y4	Z4	X5	Y5	Z5	X6	Y6	Z6	X7	Y7	Z7	X8	Y8	Z8	X9	Y9	Z9	X10	Y10	Z10	X11	Y11	Z11	X12	Y12	Z12	X13	Y13	Z13	X14	Y14	Z14	X15	Y15	Z15	X16	Y16	Z16	X17	Y17	Z17	X18	Y18	Z18	X19	Y19	Z19	X20	Y20	Z20	X21	Y21	Z21	X22	Y22	Z22
38	1.2808988764044944	2.690952415097862	0.6573480983877881	0.0301	2.663417950477288	0.6708262394916176	0.0301	2.7437222071011234	0.2876278640905198	0.129	2.3329488067005895	0.14291699748307887	0.023	2.426103383600668	-0.005429749375090169	0.2179	2.3774515335004764	0.013823295786476338	0.1804	2.2461152889859632	0.13323381206319337	-0.0119	2.7269781803635653	0.6449330673381849	0.0301	2.729009121490156	0.2986191021886335	0.129	2.4340206742850348	0.12349176894908943	0.023	2.542974113849745	-0.0002184530032362932	0.2179	2.5322414366267694	0.03222446946471309	0.1804	2.3494930710060844	0.10450862435904752	-0.0119	2.9689053196526323	1.129798760729573	0.0008	3.042852643932651	1.3637864945610552	0.0655	3.096305840436936	1.210331715694872	0.1076	2.9475217198638926	1.1054074660062807	-0.01275	3.2251146623588496	1.0602604927480364	0.0702	3.2396602257039224	1.2229473741364483	0.1076	2.9791985077242007	1.0877348038557701	-0.01275	3.2393433763316133	1.0293266171823556	0.0702	3.2840313185615555	1.1982486130145824	0.1076
39	1.3146067415730336	2.698029046224578	0.6475345027989993	0.0301	2.6696249515502717	0.6613635071443759	0.0301	2.7504631638104304	0.2775146165390729	0.129	2.3363159786454015	0.1448815287980126	0.023	2.424310718349797	-0.0068837586125492555	0.2179	2.378002709976791	0.014959427822933498	0.1804	2.2505323686689986	0.13562821107041825	-0.0119	2.73180589195279	0.6381690003612361	0.0301	2.730314061961056	0.2955516646791439	0.129	2.436074757825831	0.1228779574928904	0.023	2.543951034848373	-0.0021755664086385244	0.2179	2.5323010785549114	0.030160343324464246	0.1804	2.3508301430782454	0.10525143770653549	-0.0119	2.96511098088603	1.1208705480713452	0.0008	3.036853478003485	1.359167423411897	0.0655	3.0882852044053153	1.2035207481212735	0.1076	2.942233776211565	1.096794504453154	-0.01275	3.2331587139328932	1.0810047103378715	0.0702	3.223285742786259	1.2421618395701144	0.1076	2.977370614605702	1.084068596269751	-0.01275	3.2412889069085775	1.0547750783703589	0.0702	3.26751424216756	1.2245317573940726	0.1076
40	1.348314606741573	2.705309993377421	0.6418104402077783	0.0301	2.6766041632156345	0.656211289239552	0.0301	2.7545324011344947	0.2700960672669115	0.129	2.3376938087047527	0.1458583108368052	0.023	2.4217685247253713	-0.009469824716537041	0.2179	2.3782438944069955	0.01574321304791973	0.1804	2.2528418749585466	0.13644505596505205	-0.0119	2.736214255743327	0.6353987190690568	0.0301	2.727993974771948	0.29542491905595547	0.129	2.43691658118427	0.12321504800494792	0.023	2.5446422483154056	-0.002963655120543184	0.2179	2.5319594786223147	0.028654166062120467	0.1804	2.3515647960028145	0.10610428117909244	-0.0119	2.9639195654531	1.1168067178636722	0.0008	3.032573019370671	1.3590914223794208	0.0655	3.0858123032804956	1.2007472996929953	0.1076	2.9435312267781613	1.092204611836815	-0.01275	3.2377945685182237	1.0974447009692263	0.0702	3.2142082255973676	1.2561426938843532	0.1076	2.9726117485641437	1.084113836002974	-0.01275	3.239682146618935	1.076176018934068	0.0702	3.250272900545469	1.2451258211825078	0.1076
41	1.3820224719101124	2.7134549562026398	0.6413388963152388	0.0301	2.685322881208439	0.6574325050649782	0.0301	2.7554920728920895	0.26867759073838304	0.129	2.337847730177956	0.1455032590387779	0.023	2.4194355413468895	-0.012149177872975757	0.2179	2.378607203318042	0.015236315961207555	0.1804	2.2521921273132084	0.13616143465132577	-0.0119	2.7417638508831326	0.6365780647609091	0.0301	2.7255519500058023	0.29654274944327647	0.129	2.436534510023167	0.12369792700892317	0.023	2.5452829901725007	-0.00291283641607424	0.2179	2.53223461817706	0.02862609098140692	0.1804	2.3518739838807194	0.10607229139934303	-0.0119	2.966281256677957	1.1201404617197213	0.0008	3.0316692593581833	1.3633531445700238	0.0655	3.0886558230830263	1.2030167020264948	0.1076	2.9514544640365683	1.0932045472912315	-0.01275	3.241018874215675	1.1084543501967443	0.0702	3.2153848024540777	1.267475800733325	0.1076	2.9634998515231668	1.0918375095200652	-0.01275	3.237715962120008	1.0945751808920283	0.0702	3.237094858584659	1.2633542305102294	0.1076
42	1.4157303370786516	2.7252012897455673	0.6475590261313401	0.0301	2.6990661023235827	0.6659419560139217	0.0301	2.7536384642163263	0.2737048525820525	0.129	2.3373322602148856	0.1453307807749192	0.023	2.4186153229255014	-0.013592580679966704	0.2179	2.379040367665022	0.014436028048936723	0.1804	2.2488779029200736	0.13515475206935534	-0.0119	2.75122195511265	0.6442383637001102	0.0301	2.721773421862662	0.30118726702005216	0.129	2.435653264109355	0.12483743326510496	0.023	2.5443372956464114	-0.00203942255197572	0.2179	2.532770093599786	0.030153828800823866	0.1804	2.352831933841195	0.10547652696115221	-0.0119	2.974647669026715	1.131259308598949	0.0008	3.036706336819107	1.3743403559334295	0.0655	3.097633552092033	1.2143903419892252	0.1076	2.9627599856124918	1.1024242165295604	-0.01275	3.247670527836629	1.122548239952804	0.0702	3.2270255382533706	1.2863358424276181	0.1076	2.9614857778608807	1.1058117746234373	-0.01275	3.2424542771935645	1.113272543412525	0.0702	3.239009377063361	1.2837017773278028	0.1076
43	1.449438202247191	2.7418401917937643	0.6621168667747629	0.0301	2.718416910289891	0.6814377711629757	0.0301	2.74836323075776	0.2857277030586677	0.129	2.336608111421748	0.14643517792140157	0.023	2.4208840432759744	-0.012989807340237688	0.2179	2.380213701173315	0.014794783775456915	0.1804	2.244154989698635	0.13388877325431642	-0.0119	2.765808325371588	0.6603486663243219	0.0301	2.718171911785332	0.3114082874657743	0.129	2.4347988253396946	0.12771841410466117	0.023	2.5404566609655075	0.00036802515661543526	0.2179	2.5315210290589047	0.03233439110857232	0.1804	2.3536178637384717	0.10608105862544773	-0.0119	2.9890562395027462	1.1503089177884795	0.0008	3.0469965193451336	1.3941371632909065	0.0655	3.111380011297144	1.236976482523772	0.1076	2.9760114634337347	1.1216284075356857	-0.01275	3.2615014382865337	1.1465378234386467	0.0702	3.2505414291880634	1.318630062029956	0.1076	2.974516107619215	1.1244726355477999	-0.01275	3.2563753227441494	1.1365897658954882	0.0702	3.260670817430835	1.3110559525319894	0.1076
44	1.4831460674157304	2.7605283468928974	0.685920062364634	0.0301	2.7393447594730023	0.703953941131314	0.0301	2.7363753358303633	0.3085198664477787	0.129	2.3357389817328764	0.14786447077885656	0.023	2.4255923728529245	-0.009905764957875119	0.2179	2.3828090110656563	0.01644669525124053	0.1804	2.2398249235609287	0.1328292777285739	-0.0119	2.7837775165957686	0.6839468364285719	0.0301	2.71771409332055	0.3280030939418119	0.129	2.4335614018444622	0.1326651519606659	0.023	2.5359397358742606	0.00392992754423578	0.2179	2.5286933120862667	0.034269257417536975	0.1804	2.3517116499293733	0.10921742504777766	-0.0119	3.0070519645142184	1.177755066738931	0.0008	3.057615173828281	1.422075105302454	0.0655	3.1264104643306587	1.2686176384885317	0.1076	2.9922561711040117	1.1490424939489476	-0.01275	3.2811289425144547	1.1764660487114176	0.0702	3.287389433804908	1.356603523336608	0.1076	2.9970107661967393	1.149084345586928	-0.01275	3.274915050286815	1.1650793202113263	0.0702	3.296291755700471	1.3444728427316368	0.1076
45	1.5168539325842696	2.7787657163651582	0.7179388304547011	0.0301	2.7585722309912115	0.7337721454987527	0.0301	2.7132472670302983	0.34524570690800144	0.129	2.334552077023841	0.14922323137822951	0.023	2.4292199716979264	-0.005380864525989639	0.2179	2.3852007741936005	0.01743136943646943	0.1804	2.2380451454378134	0.13276334840934104	-0.0119	2.8033054812594007	0.7127718027879598	0.0301	2.7197616618941565	0.3515219476687085	0.129	2.432688541975867	0.13985048066683536	0.023	2.533650209125717	0.007375960069889297	0.2179	2.5268533046372976	0.03616554360019832	0.1804	2.350168528461646	0.1143770141325308	-0.0119	3.0277354609381093	1.2117388949748222	0.0008	3.065189752895516	1.4559441757116292	0.0655	3.1395807610178985	1.3068897187710824	0.1076	3.0118286532438874	1.1813895793007716	-0.01275	3.301997435592347	1.2068173210859556	0.0702	3.3338818235735226	1.3922693204696763	0.1076	3.022931547865249	1.1794022215388587	-0.01275	3.293049286116271	1.1953168197103596	0.0702	3.338843908259871	1.3798397371126083	0.1076
46	1.550561797752809	2.798159734907973	0.7536073530764068	0.0301	2.776334197142648	0.7684903973235547	0.0301	2.6804723080912263	0.39117987351941286	0.129	2.33347293876649	0.15223086103020725	0.023	2.4294757712617474	-0.0015265078959723324	0.2179	2.3845649477492588	0.016151193013872134	0.1804	2.2406641727703978	0.1346677610339034	-0.0119	2.8241214501387644	0.7432182991444582	0.0301	2.7196280848615926	0.38084314676804376	0.129	2.434357406937398	0.14853336839124787	0.023	2.532085215348333	0.01031038017475895	0.2179	2.527061607421872	0.03791339868588705	0.1804	2.3566897461186107	0.12037844306806332	-0.0119	3.0513494658223332	1.2472843007190588	0.0008	3.070875753781959	1.4916134855193726	0.0655	3.1491189539286735	1.348647685169446	0.1076	3.033074770036785	1.2167342781175003	-0.01275	3.3208014044080416	1.241235052241054	0.0702	3.382722612272081	1.428826687096826	0.1076	3.054392582180387	1.2107533630083742	-0.01275	3.3094734052892507	1.222925514489335	0.0702	3.3851648341228153	1.4145379038051238	0.1076
47	1.5842696629213482	2.8195695809510024	0.7850055384587546	0.0301	2.792784574423842	0.8017850339554247	0.0301	2.647892455508473	0.43524766500908646	0.129	2.333902907434802	0.15852363301215103	0.023	2.4297316720347166	0.0011721084373659111	0.2179	2.3827826466270725	0.01434545638780354	0.1804	2.249370815571569	0.13827476566387964	-0.0119	2.8441745942477152	0.7697395347171594	0.0301	2.712731223406576	0.412250215689965	0.129	2.440282278150095	0.1563151550169149	0.023	2.529266935639831	0.013041719676428361	0.2179	2.5296187976001865	0.038847994134645215	0.1804	2.3723013752061894	0.12691683141345103	-0.0119	3.074795077351314	1.278993267873539	0.0008	3.0773230715365263	1.5229185949109005	0.0655	3.154730219007846	1.3867971489371278	0.1076	3.0531143693369023	1.252200241487758	-0.01275	3.3361009010327694	1.2876710566858067	0.0702	3.429380956918848	1.4688608504281264	0.1076	3.091309027996283	1.2363352148128137	-0.01275	3.3242680242745033	1.2436883283142204	0.0702	3.4300546044168714	1.4397425267118604	0.1076
